<svg id="visual" viewBox="0 0 900 600" width="900" height="600" xmlns="http://www.w3.org/2000/svg" xmlns:xlink="http://www.w3.org/1999/xlink" version="1.1"><rect x="0" y="0" width="900" height="600" fill="#001220"></rect><path d="M341 0L332.5 14.3C324 28.7 307 57.3 304.5 85.8C302 114.3 314 142.7 312.2 171.2C310.3 199.7 294.7 228.3 303 257C311.3 285.7 343.7 314.3 356 343C368.3 371.7 360.7 400.3 355.3 428.8C350 457.3 347 485.7 341.5 514.2C336 542.7 328 571.3 324 585.7L320 600L0 600L0 585.7C0 571.3 0 542.7 0 514.2C0 485.7 0 457.3 0 428.8C0 400.3 0 371.7 0 343C0 314.3 0 285.7 0 257C0 228.3 0 199.7 0 171.2C0 142.7 0 114.3 0 85.8C0 57.3 0 28.7 0 14.3L0 0Z" fill="#c62368"></path><path d="M318 0L309.3 14.3C300.7 28.7 283.3 57.3 264.2 85.8C245 114.3 224 142.7 229.5 171.2C235 199.7 267 228.3 267.7 257C268.3 285.7 237.7 314.3 231.8 343C226 371.7 245 400.3 260.8 428.8C276.7 457.3 289.3 485.7 288.3 514.2C287.3 542.7 272.7 571.3 265.3 585.7L258 600L0 600L0 585.7C0 571.3 0 542.7 0 514.2C0 485.7 0 457.3 0 428.8C0 400.3 0 371.7 0 343C0 314.3 0 285.7 0 257C0 228.3 0 199.7 0 171.2C0 142.7 0 114.3 0 85.8C0 57.3 0 28.7 0 14.3L0 0Z" fill="#d23467"></path><path d="M218 0L215.8 14.3C213.7 28.7 209.3 57.3 213.3 85.8C217.3 114.3 229.7 142.7 231.8 171.2C234 199.7 226 228.3 222.8 257C219.7 285.7 221.3 314.3 224.8 343C228.3 371.7 233.7 400.3 227.8 428.8C222 457.3 205 485.7 199 514.2C193 542.7 198 571.3 200.5 585.7L203 600L0 600L0 585.7C0 571.3 0 542.7 0 514.2C0 485.7 0 457.3 0 428.8C0 400.3 0 371.7 0 343C0 314.3 0 285.7 0 257C0 228.3 0 199.7 0 171.2C0 142.7 0 114.3 0 85.8C0 57.3 0 28.7 0 14.3L0 0Z" fill="#de4467"></path><path d="M161 0L153.7 14.3C146.3 28.7 131.7 57.3 130.2 85.8C128.7 114.3 140.3 142.7 150.7 171.2C161 199.7 170 228.3 172.7 257C175.3 285.7 171.7 314.3 164.8 343C158 371.7 148 400.3 145.3 428.8C142.7 457.3 147.3 485.7 147 514.2C146.7 542.7 141.3 571.3 138.7 585.7L136 600L0 600L0 585.7C0 571.3 0 542.7 0 514.2C0 485.7 0 457.3 0 428.8C0 400.3 0 371.7 0 343C0 314.3 0 285.7 0 257C0 228.3 0 199.7 0 171.2C0 142.7 0 114.3 0 85.8C0 57.3 0 28.7 0 14.3L0 0Z" fill="#e85467"></path><path d="M147 0L134.8 14.3C122.7 28.7 98.3 57.3 91.3 85.8C84.3 114.3 94.7 142.7 105.5 171.2C116.3 199.7 127.7 228.3 132.2 257C136.7 285.7 134.3 314.3 131.5 343C128.7 371.7 125.3 400.3 127.2 428.8C129 457.3 136 485.7 130.3 514.2C124.7 542.7 106.3 571.3 97.2 585.7L88 600L0 600L0 585.7C0 571.3 0 542.7 0 514.2C0 485.7 0 457.3 0 428.8C0 400.3 0 371.7 0 343C0 314.3 0 285.7 0 257C0 228.3 0 199.7 0 171.2C0 142.7 0 114.3 0 85.8C0 57.3 0 28.7 0 14.3L0 0Z" fill="#f16367"></path><path d="M60 0L58.7 14.3C57.3 28.7 54.7 57.3 58.3 85.8C62 114.3 72 142.7 79.3 171.2C86.7 199.7 91.3 228.3 86.7 257C82 285.7 68 314.3 62.2 343C56.3 371.7 58.7 400.3 56.5 428.8C54.3 457.3 47.7 485.7 49.3 514.2C51 542.7 61 571.3 66 585.7L71 600L0 600L0 585.7C0 571.3 0 542.7 0 514.2C0 485.7 0 457.3 0 428.8C0 400.3 0 371.7 0 343C0 314.3 0 285.7 0 257C0 228.3 0 199.7 0 171.2C0 142.7 0 114.3 0 85.8C0 57.3 0 28.7 0 14.3L0 0Z" fill="#fa7268"></path></svg>